<?xml version="1.0" standalone="no"?>
<!DOCTYPE svg PUBLIC "-//W3C//DTD SVG 20010904//EN"
 "http://www.w3.org/TR/2001/REC-SVG-20010904/DTD/svg10.dtd">
<svg version="1.0" xmlns="http://www.w3.org/2000/svg"
 width="147.000000pt" height="147.000000pt" viewBox="0 0 147.000000 147.000000"
 preserveAspectRatio="xMidYMid meet">

<g transform="translate(0.000000,147.000000) scale(0.100000,-0.100000)"
fill="#000000" stroke="none">
<path d="M400 839 c-51 -9 -208 -74 -199 -83 2 -3 33 2 69 11 99 23 254 13
425 -28 124 -29 157 -33 285 -33 143 -1 146 0 210 30 36 18 74 39 85 47 18 14
15 14 -30 0 -35 -11 -89 -16 -180 -16 -112 -1 -148 4 -260 31 -211 51 -292 59
-405 41z"/>
<path d="M415 704 c-102 -55 -245 -254 -245 -342 0 -75 37 -89 140 -53 93 33
178 47 200 34 15 -10 19 -9 24 4 6 13 19 15 89 9 45 -4 113 -15 152 -26 97
-26 101 -18 8 15 -7 2 -13 10 -13 17 0 26 39 154 69 225 16 40 26 75 21 78 -5
3 -11 1 -14 -4 -16 -25 -75 -193 -86 -244 l-13 -58 -51 6 c-28 4 -57 12 -64
18 -14 11 -12 57 3 105 11 32 -28 30 -50 -4 -30 -47 -27 -18 10 76 32 85 38
119 16 94 -13 -14 -53 -122 -77 -204 l-21 -74 -74 -13 c-41 -7 -108 -24 -149
-37 -41 -13 -80 -22 -87 -19 -24 9 -13 70 27 149 46 92 114 174 174 209 81 47
123 25 113 -61 -6 -58 7 -56 34 6 12 27 27 55 35 61 8 6 14 15 14 20 0 17 -25
9 -38 -11 -14 -23 -32 -26 -32 -6 0 36 -70 54 -115 30z m185 -273 c0 -11 3
-26 6 -35 5 -13 -1 -16 -26 -16 -17 0 -30 3 -28 8 33 67 48 81 48 43z"/>
<path d="M1255 633 c-62 -148 -101 -303 -76 -303 6 0 11 11 11 25 0 26 43 164
78 252 12 30 17 55 12 58 -5 3 -17 -11 -25 -32z"/>
<path d="M1002 583 c-16 -43 -32 -87 -36 -99 -8 -25 -64 -80 -91 -88 -51 -15
-59 46 -10 78 24 16 25 16 25 -5 0 -18 2 -19 15 -9 34 28 5 57 -40 40 -57 -22
-71 -103 -20 -116 25 -6 42 -4 79 12 17 7 18 4 13 -24 -10 -50 8 -45 33 9 30
63 50 82 50 46 0 -13 6 -29 13 -35 10 -9 13 -3 13 26 0 20 3 49 8 65 7 22 5
27 -9 27 -9 0 -25 -10 -36 -22 -27 -34 -24 -6 11 82 33 82 35 90 21 90 -5 0
-23 -35 -39 -77z"/>
<path d="M687 506 c-42 -39 -50 -107 -14 -114 21 -4 75 50 84 86 4 18 1 29
-12 39 -25 17 -28 17 -58 -11z m48 -18 c-4 -13 -20 -36 -36 -53 -27 -28 -29
-28 -29 -8 0 23 45 83 62 83 5 0 6 -10 3 -22z"/>
<path d="M1100 494 c-23 -27 -30 -44 -28 -67 4 -45 37 -48 72 -7 36 44 44 79
21 97 -26 18 -29 17 -65 -23z m60 3 c0 -17 -48 -87 -60 -87 -19 0 -10 39 16
69 27 33 44 40 44 18z"/>
<path d="M202 185 c1 -59 1 -59 7 -15 5 41 7 43 19 25 11 -19 13 -19 22 -2 18
28 29 20 33 -25 3 -37 4 -35 5 15 2 61 -6 71 -31 35 l-15 -23 -20 25 -21 25 1
-60z"/>
<path d="M923 185 c0 -33 2 -45 4 -27 2 18 2 45 0 60 -2 15 -4 0 -4 -33z"/>
<path d="M1070 225 c0 -8 -8 -15 -19 -15 -42 0 -54 -69 -14 -84 15 -6 15 -5
-1 13 -22 24 -13 64 12 59 12 -2 17 -14 17 -36 0 -17 3 -32 7 -32 5 0 8 25 8
55 0 30 -2 55 -5 55 -3 0 -5 -7 -5 -15z"/>
<path d="M1270 225 c0 -9 -9 -15 -24 -15 -40 0 -51 -62 -13 -81 22 -12 22 -12
4 9 -23 26 -19 57 8 57 16 0 20 -7 20 -32 0 -18 3 -33 7 -33 5 0 8 25 8 55 0
30 -2 55 -5 55 -3 0 -5 -7 -5 -15z"/>
<path d="M321 178 c-1 -29 4 -40 22 -49 21 -11 21 -11 5 7 -9 10 -18 33 -21
49 -4 27 -4 27 -6 -7z"/>
<path d="M378 170 c-2 -22 0 -40 4 -40 5 0 8 18 8 40 0 22 -2 40 -4 40 -2 0
-6 -18 -8 -40z"/>
<path d="M420 171 c0 -23 5 -41 10 -41 6 0 10 16 10 36 0 28 3 35 18 32 10 -2
19 -16 24 -38 l6 -35 -1 40 c-2 37 -4 40 -34 43 -32 3 -33 2 -33 -37z"/>
<path d="M533 170 c0 -25 2 -35 4 -22 2 12 2 32 0 45 -2 12 -4 2 -4 -23z"/>
<path d="M580 195 c-15 -18 -6 -61 15 -69 19 -7 45 3 45 16 0 6 -6 5 -15 -2
-20 -17 -47 5 -43 34 2 15 10 21 30 21 14 -1 24 3 22 7 -8 13 -41 9 -54 -7z"/>
<path d="M673 170 c0 -25 2 -35 4 -22 2 12 2 32 0 45 -2 12 -4 2 -4 -23z"/>
<path d="M721 148 c1 -35 4 -53 6 -40 3 17 9 21 22 17 24 -7 43 18 39 52 -2
23 -8 29 -35 31 l-33 3 1 -63z m57 23 c2 -13 -1 -28 -7 -34 -17 -17 -45 15
-36 42 9 29 39 23 43 -8z"/>
<path d="M826 201 c-4 -6 5 -9 21 -8 21 2 28 -2 28 -18 0 -11 -4 -26 -9 -32
-6 -9 -3 -13 8 -13 14 0 17 8 14 38 -3 32 -7 37 -30 40 -14 2 -29 -1 -32 -7z"/>
<path d="M973 170 c0 -25 2 -35 4 -22 2 12 2 32 0 45 -2 12 -4 2 -4 -23z"/>
<path d="M1126 202 c-3 -5 6 -7 19 -4 23 4 24 2 21 -32 -1 -20 2 -36 6 -36 5
0 8 17 6 38 -2 29 -8 38 -25 40 -11 2 -24 -1 -27 -6z"/>
<path d="M827 163 c-12 -12 -7 -31 9 -37 14 -5 15 -4 5 8 -7 8 -10 20 -6 26 7
11 2 14 -8 3z"/>
<path d="M1115 160 c-8 -12 12 -40 28 -40 6 0 2 7 -9 15 -16 13 -17 16 -4 25
9 6 10 10 3 10 -6 0 -15 -5 -18 -10z"/>
</g>
</svg>
